M48
; DRILL file {KiCad 9.0.7} date 2026-05-14T15:14:25+0300
; FORMAT={-:-/ absolute / metric / decimal}
; #@! TF.CreationDate,2026-05-14T15:14:25+03:00
; #@! TF.GenerationSoftware,Kicad,Pcbnew,9.0.7
; #@! TF.FileFunction,Plated,1,2,PTH
FMAT,2
METRIC
; #@! TA.AperFunction,Plated,PTH,ComponentDrill
T1C0.200
; #@! TA.AperFunction,Plated,PTH,ViaDrill
T2C0.300
%
G90
G05
T1
X213.135Y-45.05
X213.135Y-46.45
X213.835Y-44.35
X213.835Y-45.725
X213.835Y-47.15
X214.535Y-45.05
X214.535Y-46.45
X215.235Y-44.35
X215.235Y-45.725
X215.235Y-47.15
X215.935Y-45.05
X215.935Y-46.45
T2
X186.5Y-88.5
X186.8Y-100.0
X187.2Y-92.0
X187.2Y-94.0
X187.25Y-86.0
X188.75Y-58.25
X188.75Y-74.75
X188.8Y-69.6
X188.8Y-97.6
X189.2Y-73.6
X190.0Y-87.25
X190.5Y-91.5
X191.0Y-74.75
X191.0Y-89.5
X191.2Y-83.6
X191.75Y-59.25
X192.5Y-65.75
X192.619Y-92.202
X192.75Y-88.5
X192.75Y-94.25
X192.8Y-73.6
X193.0Y-68.25
X193.2Y-70.4
X193.25Y-63.75
X194.4Y-102.4
X194.5Y-97.0
X195.5Y-96.0
X196.25Y-88.75
X196.25Y-93.0
X196.25Y-95.5
X196.4Y-94.0
X196.5Y-74.5
X197.0Y-98.25
X197.75Y-71.25
X198.0Y-56.5
X198.0Y-85.75
X199.0Y-57.5
X199.25Y-62.75
X199.25Y-80.75
X199.5Y-102.25
X200.0Y-30.0
X200.25Y-32.5
X200.25Y-36.25
X200.25Y-71.0
X200.5Y-44.0
X200.75Y-73.25
X201.0Y-76.5
X201.2Y-68.4
X203.0Y-58.0
X204.5Y-58.5
X205.2Y-104.0
X205.25Y-64.0
X205.25Y-72.75
X206.4Y-42.4
X206.5Y-30.75
X206.5Y-32.25
X206.5Y-80.0
X206.75Y-58.75
X206.75Y-69.5
X207.0Y-63.25
X207.0Y-77.75
X207.5Y-61.75
X207.75Y-60.25
X207.75Y-65.5
X207.75Y-67.75
X208.8Y-78.0
X209.0Y-74.25
X210.0Y-29.25
X210.0Y-30.75
X210.0Y-33.0
X210.8Y-69.6
X211.0Y-64.5
X211.25Y-36.75
X211.5Y-75.0
X211.75Y-58.75
X212.0Y-42.8
X212.5Y-84.5
X212.933Y-54.736
X213.0Y-63.5
X213.5Y-33.75
X213.75Y-53.0
X213.75Y-62.0
X214.0Y-31.75
X214.5Y-36.0
X214.5Y-54.25
X215.063Y-58.4
X215.75Y-57.75
X216.0Y-42.8
X216.0Y-103.2
X216.4Y-95.2
X217.0Y-75.5
X217.2Y-31.6
X217.25Y-58.0
X218.0Y-41.2
X218.0Y-64.8
X218.25Y-36.75
X219.2Y-40.4
X219.25Y-76.25
X220.229Y-41.827
X220.25Y-35.0
X220.25Y-63.5
X220.8Y-58.0
X221.2Y-40.0
X221.2Y-54.0
X221.6Y-42.8
X221.75Y-35.0
X222.0Y-23.25
X222.0Y-28.5
X222.0Y-40.4
X222.0Y-59.6
X222.0Y-75.2
X222.4Y-36.4
X222.4Y-58.0
X222.4Y-64.0
X222.75Y-83.75
X225.0Y-83.5
X227.2Y-96.0
X228.4Y-75.6
X243.25Y-74.5
X245.7Y-74.25
M30
