%TF.GenerationSoftware,KiCad,Pcbnew,9.0.7*%
%TF.CreationDate,2026-05-14T15:13:04+03:00*%
%TF.ProjectId,embedded_phase2,656d6265-6464-4656-945f-706861736532,rev?*%
%TF.SameCoordinates,Original*%
%TF.FileFunction,Legend,Top*%
%TF.FilePolarity,Positive*%
%FSLAX46Y46*%
G04 Gerber Fmt 4.6, Leading zero omitted, Abs format (unit mm)*
G04 Created by KiCad (PCBNEW 9.0.7) date 2026-05-14 15:13:04*
%MOMM*%
%LPD*%
G01*
G04 APERTURE LIST*
%ADD10C,0.150000*%
%ADD11C,0.120000*%
G04 APERTURE END LIST*
D10*
X190643095Y-89024819D02*
X190643095Y-89834342D01*
X190643095Y-89834342D02*
X190690714Y-89929580D01*
X190690714Y-89929580D02*
X190738333Y-89977200D01*
X190738333Y-89977200D02*
X190833571Y-90024819D01*
X190833571Y-90024819D02*
X191024047Y-90024819D01*
X191024047Y-90024819D02*
X191119285Y-89977200D01*
X191119285Y-89977200D02*
X191166904Y-89929580D01*
X191166904Y-89929580D02*
X191214523Y-89834342D01*
X191214523Y-89834342D02*
X191214523Y-89024819D01*
X192166904Y-89024819D02*
X191690714Y-89024819D01*
X191690714Y-89024819D02*
X191643095Y-89501009D01*
X191643095Y-89501009D02*
X191690714Y-89453390D01*
X191690714Y-89453390D02*
X191785952Y-89405771D01*
X191785952Y-89405771D02*
X192024047Y-89405771D01*
X192024047Y-89405771D02*
X192119285Y-89453390D01*
X192119285Y-89453390D02*
X192166904Y-89501009D01*
X192166904Y-89501009D02*
X192214523Y-89596247D01*
X192214523Y-89596247D02*
X192214523Y-89834342D01*
X192214523Y-89834342D02*
X192166904Y-89929580D01*
X192166904Y-89929580D02*
X192119285Y-89977200D01*
X192119285Y-89977200D02*
X192024047Y-90024819D01*
X192024047Y-90024819D02*
X191785952Y-90024819D01*
X191785952Y-90024819D02*
X191690714Y-89977200D01*
X191690714Y-89977200D02*
X191643095Y-89929580D01*
X204813095Y-36094819D02*
X204813095Y-36904342D01*
X204813095Y-36904342D02*
X204860714Y-36999580D01*
X204860714Y-36999580D02*
X204908333Y-37047200D01*
X204908333Y-37047200D02*
X205003571Y-37094819D01*
X205003571Y-37094819D02*
X205194047Y-37094819D01*
X205194047Y-37094819D02*
X205289285Y-37047200D01*
X205289285Y-37047200D02*
X205336904Y-36999580D01*
X205336904Y-36999580D02*
X205384523Y-36904342D01*
X205384523Y-36904342D02*
X205384523Y-36094819D01*
X205765476Y-36094819D02*
X206384523Y-36094819D01*
X206384523Y-36094819D02*
X206051190Y-36475771D01*
X206051190Y-36475771D02*
X206194047Y-36475771D01*
X206194047Y-36475771D02*
X206289285Y-36523390D01*
X206289285Y-36523390D02*
X206336904Y-36571009D01*
X206336904Y-36571009D02*
X206384523Y-36666247D01*
X206384523Y-36666247D02*
X206384523Y-36904342D01*
X206384523Y-36904342D02*
X206336904Y-36999580D01*
X206336904Y-36999580D02*
X206289285Y-37047200D01*
X206289285Y-37047200D02*
X206194047Y-37094819D01*
X206194047Y-37094819D02*
X205908333Y-37094819D01*
X205908333Y-37094819D02*
X205813095Y-37047200D01*
X205813095Y-37047200D02*
X205765476Y-36999580D01*
X220833333Y-60429580D02*
X220785714Y-60477200D01*
X220785714Y-60477200D02*
X220642857Y-60524819D01*
X220642857Y-60524819D02*
X220547619Y-60524819D01*
X220547619Y-60524819D02*
X220404762Y-60477200D01*
X220404762Y-60477200D02*
X220309524Y-60381961D01*
X220309524Y-60381961D02*
X220261905Y-60286723D01*
X220261905Y-60286723D02*
X220214286Y-60096247D01*
X220214286Y-60096247D02*
X220214286Y-59953390D01*
X220214286Y-59953390D02*
X220261905Y-59762914D01*
X220261905Y-59762914D02*
X220309524Y-59667676D01*
X220309524Y-59667676D02*
X220404762Y-59572438D01*
X220404762Y-59572438D02*
X220547619Y-59524819D01*
X220547619Y-59524819D02*
X220642857Y-59524819D01*
X220642857Y-59524819D02*
X220785714Y-59572438D01*
X220785714Y-59572438D02*
X220833333Y-59620057D01*
X221214286Y-59620057D02*
X221261905Y-59572438D01*
X221261905Y-59572438D02*
X221357143Y-59524819D01*
X221357143Y-59524819D02*
X221595238Y-59524819D01*
X221595238Y-59524819D02*
X221690476Y-59572438D01*
X221690476Y-59572438D02*
X221738095Y-59620057D01*
X221738095Y-59620057D02*
X221785714Y-59715295D01*
X221785714Y-59715295D02*
X221785714Y-59810533D01*
X221785714Y-59810533D02*
X221738095Y-59953390D01*
X221738095Y-59953390D02*
X221166667Y-60524819D01*
X221166667Y-60524819D02*
X221785714Y-60524819D01*
X222916667Y-76457200D02*
X223059524Y-76504819D01*
X223059524Y-76504819D02*
X223297619Y-76504819D01*
X223297619Y-76504819D02*
X223392857Y-76457200D01*
X223392857Y-76457200D02*
X223440476Y-76409580D01*
X223440476Y-76409580D02*
X223488095Y-76314342D01*
X223488095Y-76314342D02*
X223488095Y-76219104D01*
X223488095Y-76219104D02*
X223440476Y-76123866D01*
X223440476Y-76123866D02*
X223392857Y-76076247D01*
X223392857Y-76076247D02*
X223297619Y-76028628D01*
X223297619Y-76028628D02*
X223107143Y-75981009D01*
X223107143Y-75981009D02*
X223011905Y-75933390D01*
X223011905Y-75933390D02*
X222964286Y-75885771D01*
X222964286Y-75885771D02*
X222916667Y-75790533D01*
X222916667Y-75790533D02*
X222916667Y-75695295D01*
X222916667Y-75695295D02*
X222964286Y-75600057D01*
X222964286Y-75600057D02*
X223011905Y-75552438D01*
X223011905Y-75552438D02*
X223107143Y-75504819D01*
X223107143Y-75504819D02*
X223345238Y-75504819D01*
X223345238Y-75504819D02*
X223488095Y-75552438D01*
X223821429Y-75504819D02*
X224059524Y-76504819D01*
X224059524Y-76504819D02*
X224250000Y-75790533D01*
X224250000Y-75790533D02*
X224440476Y-76504819D01*
X224440476Y-76504819D02*
X224678572Y-75504819D01*
X225011905Y-75600057D02*
X225059524Y-75552438D01*
X225059524Y-75552438D02*
X225154762Y-75504819D01*
X225154762Y-75504819D02*
X225392857Y-75504819D01*
X225392857Y-75504819D02*
X225488095Y-75552438D01*
X225488095Y-75552438D02*
X225535714Y-75600057D01*
X225535714Y-75600057D02*
X225583333Y-75695295D01*
X225583333Y-75695295D02*
X225583333Y-75790533D01*
X225583333Y-75790533D02*
X225535714Y-75933390D01*
X225535714Y-75933390D02*
X224964286Y-76504819D01*
X224964286Y-76504819D02*
X225583333Y-76504819D01*
X195333333Y-60304819D02*
X195000000Y-59828628D01*
X194761905Y-60304819D02*
X194761905Y-59304819D01*
X194761905Y-59304819D02*
X195142857Y-59304819D01*
X195142857Y-59304819D02*
X195238095Y-59352438D01*
X195238095Y-59352438D02*
X195285714Y-59400057D01*
X195285714Y-59400057D02*
X195333333Y-59495295D01*
X195333333Y-59495295D02*
X195333333Y-59638152D01*
X195333333Y-59638152D02*
X195285714Y-59733390D01*
X195285714Y-59733390D02*
X195238095Y-59781009D01*
X195238095Y-59781009D02*
X195142857Y-59828628D01*
X195142857Y-59828628D02*
X194761905Y-59828628D01*
X196190476Y-59304819D02*
X196000000Y-59304819D01*
X196000000Y-59304819D02*
X195904762Y-59352438D01*
X195904762Y-59352438D02*
X195857143Y-59400057D01*
X195857143Y-59400057D02*
X195761905Y-59542914D01*
X195761905Y-59542914D02*
X195714286Y-59733390D01*
X195714286Y-59733390D02*
X195714286Y-60114342D01*
X195714286Y-60114342D02*
X195761905Y-60209580D01*
X195761905Y-60209580D02*
X195809524Y-60257200D01*
X195809524Y-60257200D02*
X195904762Y-60304819D01*
X195904762Y-60304819D02*
X196095238Y-60304819D01*
X196095238Y-60304819D02*
X196190476Y-60257200D01*
X196190476Y-60257200D02*
X196238095Y-60209580D01*
X196238095Y-60209580D02*
X196285714Y-60114342D01*
X196285714Y-60114342D02*
X196285714Y-59876247D01*
X196285714Y-59876247D02*
X196238095Y-59781009D01*
X196238095Y-59781009D02*
X196190476Y-59733390D01*
X196190476Y-59733390D02*
X196095238Y-59685771D01*
X196095238Y-59685771D02*
X195904762Y-59685771D01*
X195904762Y-59685771D02*
X195809524Y-59733390D01*
X195809524Y-59733390D02*
X195761905Y-59781009D01*
X195761905Y-59781009D02*
X195714286Y-59876247D01*
X221083333Y-65704819D02*
X220750000Y-65228628D01*
X220511905Y-65704819D02*
X220511905Y-64704819D01*
X220511905Y-64704819D02*
X220892857Y-64704819D01*
X220892857Y-64704819D02*
X220988095Y-64752438D01*
X220988095Y-64752438D02*
X221035714Y-64800057D01*
X221035714Y-64800057D02*
X221083333Y-64895295D01*
X221083333Y-64895295D02*
X221083333Y-65038152D01*
X221083333Y-65038152D02*
X221035714Y-65133390D01*
X221035714Y-65133390D02*
X220988095Y-65181009D01*
X220988095Y-65181009D02*
X220892857Y-65228628D01*
X220892857Y-65228628D02*
X220511905Y-65228628D01*
X221464286Y-64800057D02*
X221511905Y-64752438D01*
X221511905Y-64752438D02*
X221607143Y-64704819D01*
X221607143Y-64704819D02*
X221845238Y-64704819D01*
X221845238Y-64704819D02*
X221940476Y-64752438D01*
X221940476Y-64752438D02*
X221988095Y-64800057D01*
X221988095Y-64800057D02*
X222035714Y-64895295D01*
X222035714Y-64895295D02*
X222035714Y-64990533D01*
X222035714Y-64990533D02*
X221988095Y-65133390D01*
X221988095Y-65133390D02*
X221416667Y-65704819D01*
X221416667Y-65704819D02*
X222035714Y-65704819D01*
X181333333Y-65304819D02*
X181000000Y-64828628D01*
X180761905Y-65304819D02*
X180761905Y-64304819D01*
X180761905Y-64304819D02*
X181142857Y-64304819D01*
X181142857Y-64304819D02*
X181238095Y-64352438D01*
X181238095Y-64352438D02*
X181285714Y-64400057D01*
X181285714Y-64400057D02*
X181333333Y-64495295D01*
X181333333Y-64495295D02*
X181333333Y-64638152D01*
X181333333Y-64638152D02*
X181285714Y-64733390D01*
X181285714Y-64733390D02*
X181238095Y-64781009D01*
X181238095Y-64781009D02*
X181142857Y-64828628D01*
X181142857Y-64828628D02*
X180761905Y-64828628D01*
X181666667Y-64304819D02*
X182285714Y-64304819D01*
X182285714Y-64304819D02*
X181952381Y-64685771D01*
X181952381Y-64685771D02*
X182095238Y-64685771D01*
X182095238Y-64685771D02*
X182190476Y-64733390D01*
X182190476Y-64733390D02*
X182238095Y-64781009D01*
X182238095Y-64781009D02*
X182285714Y-64876247D01*
X182285714Y-64876247D02*
X182285714Y-65114342D01*
X182285714Y-65114342D02*
X182238095Y-65209580D01*
X182238095Y-65209580D02*
X182190476Y-65257200D01*
X182190476Y-65257200D02*
X182095238Y-65304819D01*
X182095238Y-65304819D02*
X181809524Y-65304819D01*
X181809524Y-65304819D02*
X181714286Y-65257200D01*
X181714286Y-65257200D02*
X181666667Y-65209580D01*
X227833333Y-102429580D02*
X227785714Y-102477200D01*
X227785714Y-102477200D02*
X227642857Y-102524819D01*
X227642857Y-102524819D02*
X227547619Y-102524819D01*
X227547619Y-102524819D02*
X227404762Y-102477200D01*
X227404762Y-102477200D02*
X227309524Y-102381961D01*
X227309524Y-102381961D02*
X227261905Y-102286723D01*
X227261905Y-102286723D02*
X227214286Y-102096247D01*
X227214286Y-102096247D02*
X227214286Y-101953390D01*
X227214286Y-101953390D02*
X227261905Y-101762914D01*
X227261905Y-101762914D02*
X227309524Y-101667676D01*
X227309524Y-101667676D02*
X227404762Y-101572438D01*
X227404762Y-101572438D02*
X227547619Y-101524819D01*
X227547619Y-101524819D02*
X227642857Y-101524819D01*
X227642857Y-101524819D02*
X227785714Y-101572438D01*
X227785714Y-101572438D02*
X227833333Y-101620057D01*
X228738095Y-101524819D02*
X228261905Y-101524819D01*
X228261905Y-101524819D02*
X228214286Y-102001009D01*
X228214286Y-102001009D02*
X228261905Y-101953390D01*
X228261905Y-101953390D02*
X228357143Y-101905771D01*
X228357143Y-101905771D02*
X228595238Y-101905771D01*
X228595238Y-101905771D02*
X228690476Y-101953390D01*
X228690476Y-101953390D02*
X228738095Y-102001009D01*
X228738095Y-102001009D02*
X228785714Y-102096247D01*
X228785714Y-102096247D02*
X228785714Y-102334342D01*
X228785714Y-102334342D02*
X228738095Y-102429580D01*
X228738095Y-102429580D02*
X228690476Y-102477200D01*
X228690476Y-102477200D02*
X228595238Y-102524819D01*
X228595238Y-102524819D02*
X228357143Y-102524819D01*
X228357143Y-102524819D02*
X228261905Y-102477200D01*
X228261905Y-102477200D02*
X228214286Y-102429580D01*
X211916666Y-91034819D02*
X211916666Y-91749104D01*
X211916666Y-91749104D02*
X211869047Y-91891961D01*
X211869047Y-91891961D02*
X211773809Y-91987200D01*
X211773809Y-91987200D02*
X211630952Y-92034819D01*
X211630952Y-92034819D02*
X211535714Y-92034819D01*
X212345238Y-91130057D02*
X212392857Y-91082438D01*
X212392857Y-91082438D02*
X212488095Y-91034819D01*
X212488095Y-91034819D02*
X212726190Y-91034819D01*
X212726190Y-91034819D02*
X212821428Y-91082438D01*
X212821428Y-91082438D02*
X212869047Y-91130057D01*
X212869047Y-91130057D02*
X212916666Y-91225295D01*
X212916666Y-91225295D02*
X212916666Y-91320533D01*
X212916666Y-91320533D02*
X212869047Y-91463390D01*
X212869047Y-91463390D02*
X212297619Y-92034819D01*
X212297619Y-92034819D02*
X212916666Y-92034819D01*
X212416667Y-76457200D02*
X212559524Y-76504819D01*
X212559524Y-76504819D02*
X212797619Y-76504819D01*
X212797619Y-76504819D02*
X212892857Y-76457200D01*
X212892857Y-76457200D02*
X212940476Y-76409580D01*
X212940476Y-76409580D02*
X212988095Y-76314342D01*
X212988095Y-76314342D02*
X212988095Y-76219104D01*
X212988095Y-76219104D02*
X212940476Y-76123866D01*
X212940476Y-76123866D02*
X212892857Y-76076247D01*
X212892857Y-76076247D02*
X212797619Y-76028628D01*
X212797619Y-76028628D02*
X212607143Y-75981009D01*
X212607143Y-75981009D02*
X212511905Y-75933390D01*
X212511905Y-75933390D02*
X212464286Y-75885771D01*
X212464286Y-75885771D02*
X212416667Y-75790533D01*
X212416667Y-75790533D02*
X212416667Y-75695295D01*
X212416667Y-75695295D02*
X212464286Y-75600057D01*
X212464286Y-75600057D02*
X212511905Y-75552438D01*
X212511905Y-75552438D02*
X212607143Y-75504819D01*
X212607143Y-75504819D02*
X212845238Y-75504819D01*
X212845238Y-75504819D02*
X212988095Y-75552438D01*
X213321429Y-75504819D02*
X213559524Y-76504819D01*
X213559524Y-76504819D02*
X213750000Y-75790533D01*
X213750000Y-75790533D02*
X213940476Y-76504819D01*
X213940476Y-76504819D02*
X214178572Y-75504819D01*
X215083333Y-76504819D02*
X214511905Y-76504819D01*
X214797619Y-76504819D02*
X214797619Y-75504819D01*
X214797619Y-75504819D02*
X214702381Y-75647676D01*
X214702381Y-75647676D02*
X214607143Y-75742914D01*
X214607143Y-75742914D02*
X214511905Y-75790533D01*
X180924405Y-63604819D02*
X180924405Y-62604819D01*
X180924405Y-62604819D02*
X181162500Y-62604819D01*
X181162500Y-62604819D02*
X181305357Y-62652438D01*
X181305357Y-62652438D02*
X181400595Y-62747676D01*
X181400595Y-62747676D02*
X181448214Y-62842914D01*
X181448214Y-62842914D02*
X181495833Y-63033390D01*
X181495833Y-63033390D02*
X181495833Y-63176247D01*
X181495833Y-63176247D02*
X181448214Y-63366723D01*
X181448214Y-63366723D02*
X181400595Y-63461961D01*
X181400595Y-63461961D02*
X181305357Y-63557200D01*
X181305357Y-63557200D02*
X181162500Y-63604819D01*
X181162500Y-63604819D02*
X180924405Y-63604819D01*
X182448214Y-63604819D02*
X181876786Y-63604819D01*
X182162500Y-63604819D02*
X182162500Y-62604819D01*
X182162500Y-62604819D02*
X182067262Y-62747676D01*
X182067262Y-62747676D02*
X181972024Y-62842914D01*
X181972024Y-62842914D02*
X181876786Y-62890533D01*
X200166666Y-88804819D02*
X200166666Y-89519104D01*
X200166666Y-89519104D02*
X200119047Y-89661961D01*
X200119047Y-89661961D02*
X200023809Y-89757200D01*
X200023809Y-89757200D02*
X199880952Y-89804819D01*
X199880952Y-89804819D02*
X199785714Y-89804819D01*
X201071428Y-89138152D02*
X201071428Y-89804819D01*
X200833333Y-88757200D02*
X200595238Y-89471485D01*
X200595238Y-89471485D02*
X201214285Y-89471485D01*
X197083333Y-101429580D02*
X197035714Y-101477200D01*
X197035714Y-101477200D02*
X196892857Y-101524819D01*
X196892857Y-101524819D02*
X196797619Y-101524819D01*
X196797619Y-101524819D02*
X196654762Y-101477200D01*
X196654762Y-101477200D02*
X196559524Y-101381961D01*
X196559524Y-101381961D02*
X196511905Y-101286723D01*
X196511905Y-101286723D02*
X196464286Y-101096247D01*
X196464286Y-101096247D02*
X196464286Y-100953390D01*
X196464286Y-100953390D02*
X196511905Y-100762914D01*
X196511905Y-100762914D02*
X196559524Y-100667676D01*
X196559524Y-100667676D02*
X196654762Y-100572438D01*
X196654762Y-100572438D02*
X196797619Y-100524819D01*
X196797619Y-100524819D02*
X196892857Y-100524819D01*
X196892857Y-100524819D02*
X197035714Y-100572438D01*
X197035714Y-100572438D02*
X197083333Y-100620057D01*
X197559524Y-101524819D02*
X197750000Y-101524819D01*
X197750000Y-101524819D02*
X197845238Y-101477200D01*
X197845238Y-101477200D02*
X197892857Y-101429580D01*
X197892857Y-101429580D02*
X197988095Y-101286723D01*
X197988095Y-101286723D02*
X198035714Y-101096247D01*
X198035714Y-101096247D02*
X198035714Y-100715295D01*
X198035714Y-100715295D02*
X197988095Y-100620057D01*
X197988095Y-100620057D02*
X197940476Y-100572438D01*
X197940476Y-100572438D02*
X197845238Y-100524819D01*
X197845238Y-100524819D02*
X197654762Y-100524819D01*
X197654762Y-100524819D02*
X197559524Y-100572438D01*
X197559524Y-100572438D02*
X197511905Y-100620057D01*
X197511905Y-100620057D02*
X197464286Y-100715295D01*
X197464286Y-100715295D02*
X197464286Y-100953390D01*
X197464286Y-100953390D02*
X197511905Y-101048628D01*
X197511905Y-101048628D02*
X197559524Y-101096247D01*
X197559524Y-101096247D02*
X197654762Y-101143866D01*
X197654762Y-101143866D02*
X197845238Y-101143866D01*
X197845238Y-101143866D02*
X197940476Y-101096247D01*
X197940476Y-101096247D02*
X197988095Y-101048628D01*
X197988095Y-101048628D02*
X198035714Y-100953390D01*
X220954819Y-26678333D02*
X221669104Y-26678333D01*
X221669104Y-26678333D02*
X221811961Y-26725952D01*
X221811961Y-26725952D02*
X221907200Y-26821190D01*
X221907200Y-26821190D02*
X221954819Y-26964047D01*
X221954819Y-26964047D02*
X221954819Y-27059285D01*
X220954819Y-25725952D02*
X220954819Y-26202142D01*
X220954819Y-26202142D02*
X221431009Y-26249761D01*
X221431009Y-26249761D02*
X221383390Y-26202142D01*
X221383390Y-26202142D02*
X221335771Y-26106904D01*
X221335771Y-26106904D02*
X221335771Y-25868809D01*
X221335771Y-25868809D02*
X221383390Y-25773571D01*
X221383390Y-25773571D02*
X221431009Y-25725952D01*
X221431009Y-25725952D02*
X221526247Y-25678333D01*
X221526247Y-25678333D02*
X221764342Y-25678333D01*
X221764342Y-25678333D02*
X221859580Y-25725952D01*
X221859580Y-25725952D02*
X221907200Y-25773571D01*
X221907200Y-25773571D02*
X221954819Y-25868809D01*
X221954819Y-25868809D02*
X221954819Y-26106904D01*
X221954819Y-26106904D02*
X221907200Y-26202142D01*
X221907200Y-26202142D02*
X221859580Y-26249761D01*
X211083333Y-102009580D02*
X211035714Y-102057200D01*
X211035714Y-102057200D02*
X210892857Y-102104819D01*
X210892857Y-102104819D02*
X210797619Y-102104819D01*
X210797619Y-102104819D02*
X210654762Y-102057200D01*
X210654762Y-102057200D02*
X210559524Y-101961961D01*
X210559524Y-101961961D02*
X210511905Y-101866723D01*
X210511905Y-101866723D02*
X210464286Y-101676247D01*
X210464286Y-101676247D02*
X210464286Y-101533390D01*
X210464286Y-101533390D02*
X210511905Y-101342914D01*
X210511905Y-101342914D02*
X210559524Y-101247676D01*
X210559524Y-101247676D02*
X210654762Y-101152438D01*
X210654762Y-101152438D02*
X210797619Y-101104819D01*
X210797619Y-101104819D02*
X210892857Y-101104819D01*
X210892857Y-101104819D02*
X211035714Y-101152438D01*
X211035714Y-101152438D02*
X211083333Y-101200057D01*
X211416667Y-101104819D02*
X212035714Y-101104819D01*
X212035714Y-101104819D02*
X211702381Y-101485771D01*
X211702381Y-101485771D02*
X211845238Y-101485771D01*
X211845238Y-101485771D02*
X211940476Y-101533390D01*
X211940476Y-101533390D02*
X211988095Y-101581009D01*
X211988095Y-101581009D02*
X212035714Y-101676247D01*
X212035714Y-101676247D02*
X212035714Y-101914342D01*
X212035714Y-101914342D02*
X211988095Y-102009580D01*
X211988095Y-102009580D02*
X211940476Y-102057200D01*
X211940476Y-102057200D02*
X211845238Y-102104819D01*
X211845238Y-102104819D02*
X211559524Y-102104819D01*
X211559524Y-102104819D02*
X211464286Y-102057200D01*
X211464286Y-102057200D02*
X211416667Y-102009580D01*
X187736905Y-68854819D02*
X187736905Y-67854819D01*
X187736905Y-67854819D02*
X187975000Y-67854819D01*
X187975000Y-67854819D02*
X188117857Y-67902438D01*
X188117857Y-67902438D02*
X188213095Y-67997676D01*
X188213095Y-67997676D02*
X188260714Y-68092914D01*
X188260714Y-68092914D02*
X188308333Y-68283390D01*
X188308333Y-68283390D02*
X188308333Y-68426247D01*
X188308333Y-68426247D02*
X188260714Y-68616723D01*
X188260714Y-68616723D02*
X188213095Y-68711961D01*
X188213095Y-68711961D02*
X188117857Y-68807200D01*
X188117857Y-68807200D02*
X187975000Y-68854819D01*
X187975000Y-68854819D02*
X187736905Y-68854819D01*
X188689286Y-67950057D02*
X188736905Y-67902438D01*
X188736905Y-67902438D02*
X188832143Y-67854819D01*
X188832143Y-67854819D02*
X189070238Y-67854819D01*
X189070238Y-67854819D02*
X189165476Y-67902438D01*
X189165476Y-67902438D02*
X189213095Y-67950057D01*
X189213095Y-67950057D02*
X189260714Y-68045295D01*
X189260714Y-68045295D02*
X189260714Y-68140533D01*
X189260714Y-68140533D02*
X189213095Y-68283390D01*
X189213095Y-68283390D02*
X188641667Y-68854819D01*
X188641667Y-68854819D02*
X189260714Y-68854819D01*
X216333333Y-60429580D02*
X216285714Y-60477200D01*
X216285714Y-60477200D02*
X216142857Y-60524819D01*
X216142857Y-60524819D02*
X216047619Y-60524819D01*
X216047619Y-60524819D02*
X215904762Y-60477200D01*
X215904762Y-60477200D02*
X215809524Y-60381961D01*
X215809524Y-60381961D02*
X215761905Y-60286723D01*
X215761905Y-60286723D02*
X215714286Y-60096247D01*
X215714286Y-60096247D02*
X215714286Y-59953390D01*
X215714286Y-59953390D02*
X215761905Y-59762914D01*
X215761905Y-59762914D02*
X215809524Y-59667676D01*
X215809524Y-59667676D02*
X215904762Y-59572438D01*
X215904762Y-59572438D02*
X216047619Y-59524819D01*
X216047619Y-59524819D02*
X216142857Y-59524819D01*
X216142857Y-59524819D02*
X216285714Y-59572438D01*
X216285714Y-59572438D02*
X216333333Y-59620057D01*
X217285714Y-60524819D02*
X216714286Y-60524819D01*
X217000000Y-60524819D02*
X217000000Y-59524819D01*
X217000000Y-59524819D02*
X216904762Y-59667676D01*
X216904762Y-59667676D02*
X216809524Y-59762914D01*
X216809524Y-59762914D02*
X216714286Y-59810533D01*
X191333333Y-101179580D02*
X191285714Y-101227200D01*
X191285714Y-101227200D02*
X191142857Y-101274819D01*
X191142857Y-101274819D02*
X191047619Y-101274819D01*
X191047619Y-101274819D02*
X190904762Y-101227200D01*
X190904762Y-101227200D02*
X190809524Y-101131961D01*
X190809524Y-101131961D02*
X190761905Y-101036723D01*
X190761905Y-101036723D02*
X190714286Y-100846247D01*
X190714286Y-100846247D02*
X190714286Y-100703390D01*
X190714286Y-100703390D02*
X190761905Y-100512914D01*
X190761905Y-100512914D02*
X190809524Y-100417676D01*
X190809524Y-100417676D02*
X190904762Y-100322438D01*
X190904762Y-100322438D02*
X191047619Y-100274819D01*
X191047619Y-100274819D02*
X191142857Y-100274819D01*
X191142857Y-100274819D02*
X191285714Y-100322438D01*
X191285714Y-100322438D02*
X191333333Y-100370057D01*
X191904762Y-100703390D02*
X191809524Y-100655771D01*
X191809524Y-100655771D02*
X191761905Y-100608152D01*
X191761905Y-100608152D02*
X191714286Y-100512914D01*
X191714286Y-100512914D02*
X191714286Y-100465295D01*
X191714286Y-100465295D02*
X191761905Y-100370057D01*
X191761905Y-100370057D02*
X191809524Y-100322438D01*
X191809524Y-100322438D02*
X191904762Y-100274819D01*
X191904762Y-100274819D02*
X192095238Y-100274819D01*
X192095238Y-100274819D02*
X192190476Y-100322438D01*
X192190476Y-100322438D02*
X192238095Y-100370057D01*
X192238095Y-100370057D02*
X192285714Y-100465295D01*
X192285714Y-100465295D02*
X192285714Y-100512914D01*
X192285714Y-100512914D02*
X192238095Y-100608152D01*
X192238095Y-100608152D02*
X192190476Y-100655771D01*
X192190476Y-100655771D02*
X192095238Y-100703390D01*
X192095238Y-100703390D02*
X191904762Y-100703390D01*
X191904762Y-100703390D02*
X191809524Y-100751009D01*
X191809524Y-100751009D02*
X191761905Y-100798628D01*
X191761905Y-100798628D02*
X191714286Y-100893866D01*
X191714286Y-100893866D02*
X191714286Y-101084342D01*
X191714286Y-101084342D02*
X191761905Y-101179580D01*
X191761905Y-101179580D02*
X191809524Y-101227200D01*
X191809524Y-101227200D02*
X191904762Y-101274819D01*
X191904762Y-101274819D02*
X192095238Y-101274819D01*
X192095238Y-101274819D02*
X192190476Y-101227200D01*
X192190476Y-101227200D02*
X192238095Y-101179580D01*
X192238095Y-101179580D02*
X192285714Y-101084342D01*
X192285714Y-101084342D02*
X192285714Y-100893866D01*
X192285714Y-100893866D02*
X192238095Y-100798628D01*
X192238095Y-100798628D02*
X192190476Y-100751009D01*
X192190476Y-100751009D02*
X192095238Y-100703390D01*
X223333333Y-102429580D02*
X223285714Y-102477200D01*
X223285714Y-102477200D02*
X223142857Y-102524819D01*
X223142857Y-102524819D02*
X223047619Y-102524819D01*
X223047619Y-102524819D02*
X222904762Y-102477200D01*
X222904762Y-102477200D02*
X222809524Y-102381961D01*
X222809524Y-102381961D02*
X222761905Y-102286723D01*
X222761905Y-102286723D02*
X222714286Y-102096247D01*
X222714286Y-102096247D02*
X222714286Y-101953390D01*
X222714286Y-101953390D02*
X222761905Y-101762914D01*
X222761905Y-101762914D02*
X222809524Y-101667676D01*
X222809524Y-101667676D02*
X222904762Y-101572438D01*
X222904762Y-101572438D02*
X223047619Y-101524819D01*
X223047619Y-101524819D02*
X223142857Y-101524819D01*
X223142857Y-101524819D02*
X223285714Y-101572438D01*
X223285714Y-101572438D02*
X223333333Y-101620057D01*
X224190476Y-101858152D02*
X224190476Y-102524819D01*
X223952381Y-101477200D02*
X223714286Y-102191485D01*
X223714286Y-102191485D02*
X224333333Y-102191485D01*
X233666667Y-76407200D02*
X233809524Y-76454819D01*
X233809524Y-76454819D02*
X234047619Y-76454819D01*
X234047619Y-76454819D02*
X234142857Y-76407200D01*
X234142857Y-76407200D02*
X234190476Y-76359580D01*
X234190476Y-76359580D02*
X234238095Y-76264342D01*
X234238095Y-76264342D02*
X234238095Y-76169104D01*
X234238095Y-76169104D02*
X234190476Y-76073866D01*
X234190476Y-76073866D02*
X234142857Y-76026247D01*
X234142857Y-76026247D02*
X234047619Y-75978628D01*
X234047619Y-75978628D02*
X233857143Y-75931009D01*
X233857143Y-75931009D02*
X233761905Y-75883390D01*
X233761905Y-75883390D02*
X233714286Y-75835771D01*
X233714286Y-75835771D02*
X233666667Y-75740533D01*
X233666667Y-75740533D02*
X233666667Y-75645295D01*
X233666667Y-75645295D02*
X233714286Y-75550057D01*
X233714286Y-75550057D02*
X233761905Y-75502438D01*
X233761905Y-75502438D02*
X233857143Y-75454819D01*
X233857143Y-75454819D02*
X234095238Y-75454819D01*
X234095238Y-75454819D02*
X234238095Y-75502438D01*
X234571429Y-75454819D02*
X234809524Y-76454819D01*
X234809524Y-76454819D02*
X235000000Y-75740533D01*
X235000000Y-75740533D02*
X235190476Y-76454819D01*
X235190476Y-76454819D02*
X235428572Y-75454819D01*
X236238095Y-75788152D02*
X236238095Y-76454819D01*
X236000000Y-75407200D02*
X235761905Y-76121485D01*
X235761905Y-76121485D02*
X236380952Y-76121485D01*
X202011905Y-68854819D02*
X202011905Y-67854819D01*
X202011905Y-67854819D02*
X202250000Y-67854819D01*
X202250000Y-67854819D02*
X202392857Y-67902438D01*
X202392857Y-67902438D02*
X202488095Y-67997676D01*
X202488095Y-67997676D02*
X202535714Y-68092914D01*
X202535714Y-68092914D02*
X202583333Y-68283390D01*
X202583333Y-68283390D02*
X202583333Y-68426247D01*
X202583333Y-68426247D02*
X202535714Y-68616723D01*
X202535714Y-68616723D02*
X202488095Y-68711961D01*
X202488095Y-68711961D02*
X202392857Y-68807200D01*
X202392857Y-68807200D02*
X202250000Y-68854819D01*
X202250000Y-68854819D02*
X202011905Y-68854819D01*
X203440476Y-68188152D02*
X203440476Y-68854819D01*
X203202381Y-67807200D02*
X202964286Y-68521485D01*
X202964286Y-68521485D02*
X203583333Y-68521485D01*
X188333333Y-60554819D02*
X188000000Y-60078628D01*
X187761905Y-60554819D02*
X187761905Y-59554819D01*
X187761905Y-59554819D02*
X188142857Y-59554819D01*
X188142857Y-59554819D02*
X188238095Y-59602438D01*
X188238095Y-59602438D02*
X188285714Y-59650057D01*
X188285714Y-59650057D02*
X188333333Y-59745295D01*
X188333333Y-59745295D02*
X188333333Y-59888152D01*
X188333333Y-59888152D02*
X188285714Y-59983390D01*
X188285714Y-59983390D02*
X188238095Y-60031009D01*
X188238095Y-60031009D02*
X188142857Y-60078628D01*
X188142857Y-60078628D02*
X187761905Y-60078628D01*
X189238095Y-59554819D02*
X188761905Y-59554819D01*
X188761905Y-59554819D02*
X188714286Y-60031009D01*
X188714286Y-60031009D02*
X188761905Y-59983390D01*
X188761905Y-59983390D02*
X188857143Y-59935771D01*
X188857143Y-59935771D02*
X189095238Y-59935771D01*
X189095238Y-59935771D02*
X189190476Y-59983390D01*
X189190476Y-59983390D02*
X189238095Y-60031009D01*
X189238095Y-60031009D02*
X189285714Y-60126247D01*
X189285714Y-60126247D02*
X189285714Y-60364342D01*
X189285714Y-60364342D02*
X189238095Y-60459580D01*
X189238095Y-60459580D02*
X189190476Y-60507200D01*
X189190476Y-60507200D02*
X189095238Y-60554819D01*
X189095238Y-60554819D02*
X188857143Y-60554819D01*
X188857143Y-60554819D02*
X188761905Y-60507200D01*
X188761905Y-60507200D02*
X188714286Y-60459580D01*
X242083333Y-78554819D02*
X241750000Y-78078628D01*
X241511905Y-78554819D02*
X241511905Y-77554819D01*
X241511905Y-77554819D02*
X241892857Y-77554819D01*
X241892857Y-77554819D02*
X241988095Y-77602438D01*
X241988095Y-77602438D02*
X242035714Y-77650057D01*
X242035714Y-77650057D02*
X242083333Y-77745295D01*
X242083333Y-77745295D02*
X242083333Y-77888152D01*
X242083333Y-77888152D02*
X242035714Y-77983390D01*
X242035714Y-77983390D02*
X241988095Y-78031009D01*
X241988095Y-78031009D02*
X241892857Y-78078628D01*
X241892857Y-78078628D02*
X241511905Y-78078628D01*
X242940476Y-77888152D02*
X242940476Y-78554819D01*
X242702381Y-77507200D02*
X242464286Y-78221485D01*
X242464286Y-78221485D02*
X243083333Y-78221485D01*
X220166667Y-91907200D02*
X220309524Y-91954819D01*
X220309524Y-91954819D02*
X220547619Y-91954819D01*
X220547619Y-91954819D02*
X220642857Y-91907200D01*
X220642857Y-91907200D02*
X220690476Y-91859580D01*
X220690476Y-91859580D02*
X220738095Y-91764342D01*
X220738095Y-91764342D02*
X220738095Y-91669104D01*
X220738095Y-91669104D02*
X220690476Y-91573866D01*
X220690476Y-91573866D02*
X220642857Y-91526247D01*
X220642857Y-91526247D02*
X220547619Y-91478628D01*
X220547619Y-91478628D02*
X220357143Y-91431009D01*
X220357143Y-91431009D02*
X220261905Y-91383390D01*
X220261905Y-91383390D02*
X220214286Y-91335771D01*
X220214286Y-91335771D02*
X220166667Y-91240533D01*
X220166667Y-91240533D02*
X220166667Y-91145295D01*
X220166667Y-91145295D02*
X220214286Y-91050057D01*
X220214286Y-91050057D02*
X220261905Y-91002438D01*
X220261905Y-91002438D02*
X220357143Y-90954819D01*
X220357143Y-90954819D02*
X220595238Y-90954819D01*
X220595238Y-90954819D02*
X220738095Y-91002438D01*
X221071429Y-90954819D02*
X221309524Y-91954819D01*
X221309524Y-91954819D02*
X221500000Y-91240533D01*
X221500000Y-91240533D02*
X221690476Y-91954819D01*
X221690476Y-91954819D02*
X221928572Y-90954819D01*
X222214286Y-90954819D02*
X222833333Y-90954819D01*
X222833333Y-90954819D02*
X222500000Y-91335771D01*
X222500000Y-91335771D02*
X222642857Y-91335771D01*
X222642857Y-91335771D02*
X222738095Y-91383390D01*
X222738095Y-91383390D02*
X222785714Y-91431009D01*
X222785714Y-91431009D02*
X222833333Y-91526247D01*
X222833333Y-91526247D02*
X222833333Y-91764342D01*
X222833333Y-91764342D02*
X222785714Y-91859580D01*
X222785714Y-91859580D02*
X222738095Y-91907200D01*
X222738095Y-91907200D02*
X222642857Y-91954819D01*
X222642857Y-91954819D02*
X222357143Y-91954819D01*
X222357143Y-91954819D02*
X222261905Y-91907200D01*
X222261905Y-91907200D02*
X222214286Y-91859580D01*
X202670833Y-60554819D02*
X202337500Y-60078628D01*
X202099405Y-60554819D02*
X202099405Y-59554819D01*
X202099405Y-59554819D02*
X202480357Y-59554819D01*
X202480357Y-59554819D02*
X202575595Y-59602438D01*
X202575595Y-59602438D02*
X202623214Y-59650057D01*
X202623214Y-59650057D02*
X202670833Y-59745295D01*
X202670833Y-59745295D02*
X202670833Y-59888152D01*
X202670833Y-59888152D02*
X202623214Y-59983390D01*
X202623214Y-59983390D02*
X202575595Y-60031009D01*
X202575595Y-60031009D02*
X202480357Y-60078628D01*
X202480357Y-60078628D02*
X202099405Y-60078628D01*
X203004167Y-59554819D02*
X203670833Y-59554819D01*
X203670833Y-59554819D02*
X203242262Y-60554819D01*
X229350595Y-92004819D02*
X229350595Y-92814342D01*
X229350595Y-92814342D02*
X229398214Y-92909580D01*
X229398214Y-92909580D02*
X229445833Y-92957200D01*
X229445833Y-92957200D02*
X229541071Y-93004819D01*
X229541071Y-93004819D02*
X229731547Y-93004819D01*
X229731547Y-93004819D02*
X229826785Y-92957200D01*
X229826785Y-92957200D02*
X229874404Y-92909580D01*
X229874404Y-92909580D02*
X229922023Y-92814342D01*
X229922023Y-92814342D02*
X229922023Y-92004819D01*
X230826785Y-92338152D02*
X230826785Y-93004819D01*
X230588690Y-91957200D02*
X230350595Y-92671485D01*
X230350595Y-92671485D02*
X230969642Y-92671485D01*
X209920833Y-60554819D02*
X209587500Y-60078628D01*
X209349405Y-60554819D02*
X209349405Y-59554819D01*
X209349405Y-59554819D02*
X209730357Y-59554819D01*
X209730357Y-59554819D02*
X209825595Y-59602438D01*
X209825595Y-59602438D02*
X209873214Y-59650057D01*
X209873214Y-59650057D02*
X209920833Y-59745295D01*
X209920833Y-59745295D02*
X209920833Y-59888152D01*
X209920833Y-59888152D02*
X209873214Y-59983390D01*
X209873214Y-59983390D02*
X209825595Y-60031009D01*
X209825595Y-60031009D02*
X209730357Y-60078628D01*
X209730357Y-60078628D02*
X209349405Y-60078628D01*
X210492262Y-59983390D02*
X210397024Y-59935771D01*
X210397024Y-59935771D02*
X210349405Y-59888152D01*
X210349405Y-59888152D02*
X210301786Y-59792914D01*
X210301786Y-59792914D02*
X210301786Y-59745295D01*
X210301786Y-59745295D02*
X210349405Y-59650057D01*
X210349405Y-59650057D02*
X210397024Y-59602438D01*
X210397024Y-59602438D02*
X210492262Y-59554819D01*
X210492262Y-59554819D02*
X210682738Y-59554819D01*
X210682738Y-59554819D02*
X210777976Y-59602438D01*
X210777976Y-59602438D02*
X210825595Y-59650057D01*
X210825595Y-59650057D02*
X210873214Y-59745295D01*
X210873214Y-59745295D02*
X210873214Y-59792914D01*
X210873214Y-59792914D02*
X210825595Y-59888152D01*
X210825595Y-59888152D02*
X210777976Y-59935771D01*
X210777976Y-59935771D02*
X210682738Y-59983390D01*
X210682738Y-59983390D02*
X210492262Y-59983390D01*
X210492262Y-59983390D02*
X210397024Y-60031009D01*
X210397024Y-60031009D02*
X210349405Y-60078628D01*
X210349405Y-60078628D02*
X210301786Y-60173866D01*
X210301786Y-60173866D02*
X210301786Y-60364342D01*
X210301786Y-60364342D02*
X210349405Y-60459580D01*
X210349405Y-60459580D02*
X210397024Y-60507200D01*
X210397024Y-60507200D02*
X210492262Y-60554819D01*
X210492262Y-60554819D02*
X210682738Y-60554819D01*
X210682738Y-60554819D02*
X210777976Y-60507200D01*
X210777976Y-60507200D02*
X210825595Y-60459580D01*
X210825595Y-60459580D02*
X210873214Y-60364342D01*
X210873214Y-60364342D02*
X210873214Y-60173866D01*
X210873214Y-60173866D02*
X210825595Y-60078628D01*
X210825595Y-60078628D02*
X210777976Y-60031009D01*
X210777976Y-60031009D02*
X210682738Y-59983390D01*
X185033333Y-101009580D02*
X184985714Y-101057200D01*
X184985714Y-101057200D02*
X184842857Y-101104819D01*
X184842857Y-101104819D02*
X184747619Y-101104819D01*
X184747619Y-101104819D02*
X184604762Y-101057200D01*
X184604762Y-101057200D02*
X184509524Y-100961961D01*
X184509524Y-100961961D02*
X184461905Y-100866723D01*
X184461905Y-100866723D02*
X184414286Y-100676247D01*
X184414286Y-100676247D02*
X184414286Y-100533390D01*
X184414286Y-100533390D02*
X184461905Y-100342914D01*
X184461905Y-100342914D02*
X184509524Y-100247676D01*
X184509524Y-100247676D02*
X184604762Y-100152438D01*
X184604762Y-100152438D02*
X184747619Y-100104819D01*
X184747619Y-100104819D02*
X184842857Y-100104819D01*
X184842857Y-100104819D02*
X184985714Y-100152438D01*
X184985714Y-100152438D02*
X185033333Y-100200057D01*
X185366667Y-100104819D02*
X186033333Y-100104819D01*
X186033333Y-100104819D02*
X185604762Y-101104819D01*
X182321666Y-96374819D02*
X182321666Y-97089104D01*
X182321666Y-97089104D02*
X182274047Y-97231961D01*
X182274047Y-97231961D02*
X182178809Y-97327200D01*
X182178809Y-97327200D02*
X182035952Y-97374819D01*
X182035952Y-97374819D02*
X181940714Y-97374819D01*
X182702619Y-96374819D02*
X183321666Y-96374819D01*
X183321666Y-96374819D02*
X182988333Y-96755771D01*
X182988333Y-96755771D02*
X183131190Y-96755771D01*
X183131190Y-96755771D02*
X183226428Y-96803390D01*
X183226428Y-96803390D02*
X183274047Y-96851009D01*
X183274047Y-96851009D02*
X183321666Y-96946247D01*
X183321666Y-96946247D02*
X183321666Y-97184342D01*
X183321666Y-97184342D02*
X183274047Y-97279580D01*
X183274047Y-97279580D02*
X183226428Y-97327200D01*
X183226428Y-97327200D02*
X183131190Y-97374819D01*
X183131190Y-97374819D02*
X182845476Y-97374819D01*
X182845476Y-97374819D02*
X182750238Y-97327200D01*
X182750238Y-97327200D02*
X182702619Y-97279580D01*
X179095833Y-101254580D02*
X179048214Y-101302200D01*
X179048214Y-101302200D02*
X178905357Y-101349819D01*
X178905357Y-101349819D02*
X178810119Y-101349819D01*
X178810119Y-101349819D02*
X178667262Y-101302200D01*
X178667262Y-101302200D02*
X178572024Y-101206961D01*
X178572024Y-101206961D02*
X178524405Y-101111723D01*
X178524405Y-101111723D02*
X178476786Y-100921247D01*
X178476786Y-100921247D02*
X178476786Y-100778390D01*
X178476786Y-100778390D02*
X178524405Y-100587914D01*
X178524405Y-100587914D02*
X178572024Y-100492676D01*
X178572024Y-100492676D02*
X178667262Y-100397438D01*
X178667262Y-100397438D02*
X178810119Y-100349819D01*
X178810119Y-100349819D02*
X178905357Y-100349819D01*
X178905357Y-100349819D02*
X179048214Y-100397438D01*
X179048214Y-100397438D02*
X179095833Y-100445057D01*
X179952976Y-100349819D02*
X179762500Y-100349819D01*
X179762500Y-100349819D02*
X179667262Y-100397438D01*
X179667262Y-100397438D02*
X179619643Y-100445057D01*
X179619643Y-100445057D02*
X179524405Y-100587914D01*
X179524405Y-100587914D02*
X179476786Y-100778390D01*
X179476786Y-100778390D02*
X179476786Y-101159342D01*
X179476786Y-101159342D02*
X179524405Y-101254580D01*
X179524405Y-101254580D02*
X179572024Y-101302200D01*
X179572024Y-101302200D02*
X179667262Y-101349819D01*
X179667262Y-101349819D02*
X179857738Y-101349819D01*
X179857738Y-101349819D02*
X179952976Y-101302200D01*
X179952976Y-101302200D02*
X180000595Y-101254580D01*
X180000595Y-101254580D02*
X180048214Y-101159342D01*
X180048214Y-101159342D02*
X180048214Y-100921247D01*
X180048214Y-100921247D02*
X180000595Y-100826009D01*
X180000595Y-100826009D02*
X179952976Y-100778390D01*
X179952976Y-100778390D02*
X179857738Y-100730771D01*
X179857738Y-100730771D02*
X179667262Y-100730771D01*
X179667262Y-100730771D02*
X179572024Y-100778390D01*
X179572024Y-100778390D02*
X179524405Y-100826009D01*
X179524405Y-100826009D02*
X179476786Y-100921247D01*
X188204819Y-79488333D02*
X188919104Y-79488333D01*
X188919104Y-79488333D02*
X189061961Y-79535952D01*
X189061961Y-79535952D02*
X189157200Y-79631190D01*
X189157200Y-79631190D02*
X189204819Y-79774047D01*
X189204819Y-79774047D02*
X189204819Y-79869285D01*
X189204819Y-78488333D02*
X189204819Y-79059761D01*
X189204819Y-78774047D02*
X188204819Y-78774047D01*
X188204819Y-78774047D02*
X188347676Y-78869285D01*
X188347676Y-78869285D02*
X188442914Y-78964523D01*
X188442914Y-78964523D02*
X188490533Y-79059761D01*
X216333333Y-66054819D02*
X216000000Y-65578628D01*
X215761905Y-66054819D02*
X215761905Y-65054819D01*
X215761905Y-65054819D02*
X216142857Y-65054819D01*
X216142857Y-65054819D02*
X216238095Y-65102438D01*
X216238095Y-65102438D02*
X216285714Y-65150057D01*
X216285714Y-65150057D02*
X216333333Y-65245295D01*
X216333333Y-65245295D02*
X216333333Y-65388152D01*
X216333333Y-65388152D02*
X216285714Y-65483390D01*
X216285714Y-65483390D02*
X216238095Y-65531009D01*
X216238095Y-65531009D02*
X216142857Y-65578628D01*
X216142857Y-65578628D02*
X215761905Y-65578628D01*
X217285714Y-66054819D02*
X216714286Y-66054819D01*
X217000000Y-66054819D02*
X217000000Y-65054819D01*
X217000000Y-65054819D02*
X216904762Y-65197676D01*
X216904762Y-65197676D02*
X216809524Y-65292914D01*
X216809524Y-65292914D02*
X216714286Y-65340533D01*
X209511905Y-69104819D02*
X209511905Y-68104819D01*
X209511905Y-68104819D02*
X209750000Y-68104819D01*
X209750000Y-68104819D02*
X209892857Y-68152438D01*
X209892857Y-68152438D02*
X209988095Y-68247676D01*
X209988095Y-68247676D02*
X210035714Y-68342914D01*
X210035714Y-68342914D02*
X210083333Y-68533390D01*
X210083333Y-68533390D02*
X210083333Y-68676247D01*
X210083333Y-68676247D02*
X210035714Y-68866723D01*
X210035714Y-68866723D02*
X209988095Y-68961961D01*
X209988095Y-68961961D02*
X209892857Y-69057200D01*
X209892857Y-69057200D02*
X209750000Y-69104819D01*
X209750000Y-69104819D02*
X209511905Y-69104819D01*
X210988095Y-68104819D02*
X210511905Y-68104819D01*
X210511905Y-68104819D02*
X210464286Y-68581009D01*
X210464286Y-68581009D02*
X210511905Y-68533390D01*
X210511905Y-68533390D02*
X210607143Y-68485771D01*
X210607143Y-68485771D02*
X210845238Y-68485771D01*
X210845238Y-68485771D02*
X210940476Y-68533390D01*
X210940476Y-68533390D02*
X210988095Y-68581009D01*
X210988095Y-68581009D02*
X211035714Y-68676247D01*
X211035714Y-68676247D02*
X211035714Y-68914342D01*
X211035714Y-68914342D02*
X210988095Y-69009580D01*
X210988095Y-69009580D02*
X210940476Y-69057200D01*
X210940476Y-69057200D02*
X210845238Y-69104819D01*
X210845238Y-69104819D02*
X210607143Y-69104819D01*
X210607143Y-69104819D02*
X210511905Y-69057200D01*
X210511905Y-69057200D02*
X210464286Y-69009580D01*
X202833333Y-101554819D02*
X202500000Y-101078628D01*
X202261905Y-101554819D02*
X202261905Y-100554819D01*
X202261905Y-100554819D02*
X202642857Y-100554819D01*
X202642857Y-100554819D02*
X202738095Y-100602438D01*
X202738095Y-100602438D02*
X202785714Y-100650057D01*
X202785714Y-100650057D02*
X202833333Y-100745295D01*
X202833333Y-100745295D02*
X202833333Y-100888152D01*
X202833333Y-100888152D02*
X202785714Y-100983390D01*
X202785714Y-100983390D02*
X202738095Y-101031009D01*
X202738095Y-101031009D02*
X202642857Y-101078628D01*
X202642857Y-101078628D02*
X202261905Y-101078628D01*
X203309524Y-101554819D02*
X203500000Y-101554819D01*
X203500000Y-101554819D02*
X203595238Y-101507200D01*
X203595238Y-101507200D02*
X203642857Y-101459580D01*
X203642857Y-101459580D02*
X203738095Y-101316723D01*
X203738095Y-101316723D02*
X203785714Y-101126247D01*
X203785714Y-101126247D02*
X203785714Y-100745295D01*
X203785714Y-100745295D02*
X203738095Y-100650057D01*
X203738095Y-100650057D02*
X203690476Y-100602438D01*
X203690476Y-100602438D02*
X203595238Y-100554819D01*
X203595238Y-100554819D02*
X203404762Y-100554819D01*
X203404762Y-100554819D02*
X203309524Y-100602438D01*
X203309524Y-100602438D02*
X203261905Y-100650057D01*
X203261905Y-100650057D02*
X203214286Y-100745295D01*
X203214286Y-100745295D02*
X203214286Y-100983390D01*
X203214286Y-100983390D02*
X203261905Y-101078628D01*
X203261905Y-101078628D02*
X203309524Y-101126247D01*
X203309524Y-101126247D02*
X203404762Y-101173866D01*
X203404762Y-101173866D02*
X203595238Y-101173866D01*
X203595238Y-101173866D02*
X203690476Y-101126247D01*
X203690476Y-101126247D02*
X203738095Y-101078628D01*
X203738095Y-101078628D02*
X203785714Y-100983390D01*
X194699405Y-68854819D02*
X194699405Y-67854819D01*
X194699405Y-67854819D02*
X194937500Y-67854819D01*
X194937500Y-67854819D02*
X195080357Y-67902438D01*
X195080357Y-67902438D02*
X195175595Y-67997676D01*
X195175595Y-67997676D02*
X195223214Y-68092914D01*
X195223214Y-68092914D02*
X195270833Y-68283390D01*
X195270833Y-68283390D02*
X195270833Y-68426247D01*
X195270833Y-68426247D02*
X195223214Y-68616723D01*
X195223214Y-68616723D02*
X195175595Y-68711961D01*
X195175595Y-68711961D02*
X195080357Y-68807200D01*
X195080357Y-68807200D02*
X194937500Y-68854819D01*
X194937500Y-68854819D02*
X194699405Y-68854819D01*
X195604167Y-67854819D02*
X196223214Y-67854819D01*
X196223214Y-67854819D02*
X195889881Y-68235771D01*
X195889881Y-68235771D02*
X196032738Y-68235771D01*
X196032738Y-68235771D02*
X196127976Y-68283390D01*
X196127976Y-68283390D02*
X196175595Y-68331009D01*
X196175595Y-68331009D02*
X196223214Y-68426247D01*
X196223214Y-68426247D02*
X196223214Y-68664342D01*
X196223214Y-68664342D02*
X196175595Y-68759580D01*
X196175595Y-68759580D02*
X196127976Y-68807200D01*
X196127976Y-68807200D02*
X196032738Y-68854819D01*
X196032738Y-68854819D02*
X195747024Y-68854819D01*
X195747024Y-68854819D02*
X195651786Y-68807200D01*
X195651786Y-68807200D02*
X195604167Y-68759580D01*
D11*
%TO.C,U5*%
X189095000Y-90285000D02*
X193715000Y-90285000D01*
X193715000Y-95755000D02*
X189095000Y-95755000D01*
X187545000Y-90740000D02*
X187215000Y-90980000D01*
X187215000Y-90500000D01*
X187545000Y-90740000D01*
G36*
X187545000Y-90740000D02*
G01*
X187215000Y-90980000D01*
X187215000Y-90500000D01*
X187545000Y-90740000D01*
G37*
%TO.C,U3*%
X204125000Y-38130000D02*
X204125000Y-39130000D01*
X204125000Y-56370000D02*
X204125000Y-55370000D01*
X204905000Y-38130000D02*
X204125000Y-38130000D01*
X204905000Y-56370000D02*
X204125000Y-56370000D01*
X229865000Y-38130000D02*
X223705000Y-38130000D01*
X229865000Y-38130000D02*
X229865000Y-56370000D01*
X229865000Y-56370000D02*
X223450000Y-56370000D01*
X223480000Y-38125000D02*
X222980000Y-38125000D01*
X222980000Y-37625000D01*
X223480000Y-38125000D01*
G36*
X223480000Y-38125000D02*
G01*
X222980000Y-38125000D01*
X222980000Y-37625000D01*
X223480000Y-38125000D01*
G37*
%TO.C,C2*%
X220738748Y-61015000D02*
X221261252Y-61015000D01*
X220738748Y-62485000D02*
X221261252Y-62485000D01*
%TO.C,SW2*%
X221500000Y-78800000D02*
X221500000Y-80800000D01*
X222550000Y-77500000D02*
X223000000Y-77050000D01*
X222550000Y-82100000D02*
X223000000Y-82550000D01*
X223000000Y-77050000D02*
X225500000Y-77050000D01*
X223000000Y-82550000D02*
X225500000Y-82550000D01*
X225950000Y-77500000D02*
X225500000Y-77050000D01*
X225950000Y-82100000D02*
X225500000Y-82550000D01*
X227000000Y-78800000D02*
X227000000Y-80800000D01*
%TO.C,R6*%
X195272936Y-60765000D02*
X195727064Y-60765000D01*
X195272936Y-62235000D02*
X195727064Y-62235000D01*
%TO.C,R2*%
X220772936Y-66265000D02*
X221227064Y-66265000D01*
X220772936Y-67735000D02*
X221227064Y-67735000D01*
%TO.C,R3*%
X181272936Y-65765000D02*
X181727064Y-65765000D01*
X181272936Y-67235000D02*
X181727064Y-67235000D01*
%TO.C,C5*%
X227738748Y-103015000D02*
X228261252Y-103015000D01*
X227738748Y-104485000D02*
X228261252Y-104485000D01*
%TO.C,J2*%
X210870000Y-92580000D02*
X210870000Y-93150000D01*
X210870000Y-92580000D02*
X213630000Y-92580000D01*
X210870000Y-93150000D02*
X209400000Y-93150000D01*
X210870000Y-94770000D02*
X210870000Y-97880000D01*
X210870000Y-97880000D02*
X213630000Y-97880000D01*
X213630000Y-93150000D02*
X213630000Y-95690000D01*
X213630000Y-97310000D02*
X213630000Y-97880000D01*
%TO.C,SW1*%
X211000000Y-78800000D02*
X211000000Y-80800000D01*
X212050000Y-77500000D02*
X212500000Y-77050000D01*
X212050000Y-82100000D02*
X212500000Y-82550000D01*
X212500000Y-77050000D02*
X215000000Y-77050000D01*
X212500000Y-82550000D02*
X215000000Y-82550000D01*
X215450000Y-77500000D02*
X215000000Y-77050000D01*
X215450000Y-82100000D02*
X215000000Y-82550000D01*
X216500000Y-78800000D02*
X216500000Y-80800000D01*
%TO.C,D1*%
X180662500Y-62460000D02*
X183347500Y-62460000D01*
X183347500Y-60540000D02*
X180662500Y-60540000D01*
X183347500Y-62460000D02*
X183347500Y-60540000D01*
%TO.C,J4*%
X199120000Y-90350000D02*
X199120000Y-90920000D01*
X199120000Y-90350000D02*
X201880000Y-90350000D01*
X199120000Y-90920000D02*
X197650000Y-90920000D01*
X199120000Y-92540000D02*
X199120000Y-95650000D01*
X199120000Y-95650000D02*
X201880000Y-95650000D01*
X201880000Y-90920000D02*
X201880000Y-93460000D01*
X201880000Y-95080000D02*
X201880000Y-95650000D01*
%TO.C,C9*%
X196988748Y-102015000D02*
X197511252Y-102015000D01*
X196988748Y-103485000D02*
X197511252Y-103485000D01*
%TO.C,J5*%
X202500000Y-24965000D02*
X202500000Y-27725000D01*
X203070000Y-27725000D02*
X202500000Y-27725000D01*
X205610000Y-27725000D02*
X202500000Y-27725000D01*
X208150000Y-24965000D02*
X204690000Y-24965000D01*
X210690000Y-27725000D02*
X207230000Y-27725000D01*
X213230000Y-24965000D02*
X209770000Y-24965000D01*
X215770000Y-27725000D02*
X212310000Y-27725000D01*
X218310000Y-24965000D02*
X214850000Y-24965000D01*
X219930000Y-24965000D02*
X219930000Y-23495000D01*
X219930000Y-27725000D02*
X217390000Y-27725000D01*
X220500000Y-24965000D02*
X219930000Y-24965000D01*
X220500000Y-24965000D02*
X220500000Y-27725000D01*
%TO.C,C3*%
X210538748Y-102590000D02*
X211961252Y-102590000D01*
X210538748Y-104410000D02*
X211961252Y-104410000D01*
%TO.C,D2*%
X187475000Y-67710000D02*
X190160000Y-67710000D01*
X190160000Y-65790000D02*
X187475000Y-65790000D01*
X190160000Y-67710000D02*
X190160000Y-65790000D01*
%TO.C,C1*%
X216238748Y-61015000D02*
X216761252Y-61015000D01*
X216238748Y-62485000D02*
X216761252Y-62485000D01*
%TO.C,C8*%
X191238748Y-101765000D02*
X191761252Y-101765000D01*
X191238748Y-103235000D02*
X191761252Y-103235000D01*
%TO.C,C4*%
X223238748Y-103015000D02*
X223761252Y-103015000D01*
X223238748Y-104485000D02*
X223761252Y-104485000D01*
%TO.C,SW4*%
X232250000Y-78750000D02*
X232250000Y-80750000D01*
X233300000Y-77450000D02*
X233750000Y-77000000D01*
X233300000Y-82050000D02*
X233750000Y-82500000D01*
X233750000Y-77000000D02*
X236250000Y-77000000D01*
X233750000Y-82500000D02*
X236250000Y-82500000D01*
X236700000Y-77450000D02*
X236250000Y-77000000D01*
X236700000Y-82050000D02*
X236250000Y-82500000D01*
X237750000Y-78750000D02*
X237750000Y-80750000D01*
%TO.C,D4*%
X201750000Y-67710000D02*
X204435000Y-67710000D01*
X204435000Y-65790000D02*
X201750000Y-65790000D01*
X204435000Y-67710000D02*
X204435000Y-65790000D01*
%TO.C,R5*%
X188272936Y-61015000D02*
X188727064Y-61015000D01*
X188272936Y-62485000D02*
X188727064Y-62485000D01*
%TO.C,R4*%
X242022936Y-79015000D02*
X242477064Y-79015000D01*
X242022936Y-80485000D02*
X242477064Y-80485000D01*
%TO.C,SW3*%
X218750000Y-94250000D02*
X218750000Y-96250000D01*
X219800000Y-92950000D02*
X220250000Y-92500000D01*
X219800000Y-97550000D02*
X220250000Y-98000000D01*
X220250000Y-92500000D02*
X222750000Y-92500000D01*
X220250000Y-98000000D02*
X222750000Y-98000000D01*
X223200000Y-92950000D02*
X222750000Y-92500000D01*
X223200000Y-97550000D02*
X222750000Y-98000000D01*
X224250000Y-94250000D02*
X224250000Y-96250000D01*
%TO.C,R7*%
X202610436Y-61015000D02*
X203064564Y-61015000D01*
X202610436Y-62485000D02*
X203064564Y-62485000D01*
%TO.C,U4*%
X229202500Y-93390000D02*
X231022500Y-93390000D01*
X229202500Y-93440000D02*
X229202500Y-93390000D01*
X229202500Y-96510000D02*
X229202500Y-96460000D01*
X231022500Y-93390000D02*
X231022500Y-93440000D01*
X231022500Y-94560000D02*
X231022500Y-95340000D01*
X231022500Y-96460000D02*
X231022500Y-96510000D01*
X231022500Y-96510000D02*
X229202500Y-96510000D01*
X228662500Y-93440000D02*
X228422500Y-93110000D01*
X228902500Y-93110000D01*
X228662500Y-93440000D01*
G36*
X228662500Y-93440000D02*
G01*
X228422500Y-93110000D01*
X228902500Y-93110000D01*
X228662500Y-93440000D01*
G37*
%TO.C,R8*%
X209860436Y-61015000D02*
X210314564Y-61015000D01*
X209860436Y-62485000D02*
X210314564Y-62485000D01*
%TO.C,C7*%
X184488748Y-101590000D02*
X185911252Y-101590000D01*
X184488748Y-103410000D02*
X185911252Y-103410000D01*
%TO.C,J3*%
X181275000Y-91190000D02*
X181275000Y-90620000D01*
X181275000Y-95350000D02*
X181275000Y-92810000D01*
X184035000Y-90620000D02*
X181275000Y-90620000D01*
X184035000Y-93730000D02*
X184035000Y-90620000D01*
X184035000Y-95350000D02*
X185505000Y-95350000D01*
X184035000Y-95920000D02*
X181275000Y-95920000D01*
X184035000Y-95920000D02*
X184035000Y-95350000D01*
%TO.C,C6*%
X179001248Y-101840000D02*
X179523752Y-101840000D01*
X179001248Y-103310000D02*
X179523752Y-103310000D01*
%TO.C,J1*%
X189750000Y-80535000D02*
X189750000Y-77775000D01*
X189750000Y-80535000D02*
X190320000Y-80535000D01*
X190320000Y-77775000D02*
X192860000Y-77775000D01*
X190320000Y-80535000D02*
X190320000Y-82005000D01*
X191940000Y-80535000D02*
X195400000Y-80535000D01*
X194480000Y-77775000D02*
X197940000Y-77775000D01*
X197020000Y-80535000D02*
X200480000Y-80535000D01*
X199560000Y-77775000D02*
X203020000Y-77775000D01*
X202100000Y-80535000D02*
X205210000Y-80535000D01*
X204640000Y-77775000D02*
X205210000Y-77775000D01*
X205210000Y-80535000D02*
X205210000Y-77775000D01*
%TO.C,R1*%
X216272936Y-66515000D02*
X216727064Y-66515000D01*
X216272936Y-67985000D02*
X216727064Y-67985000D01*
%TO.C,D5*%
X209250000Y-67960000D02*
X211935000Y-67960000D01*
X211935000Y-66040000D02*
X209250000Y-66040000D01*
X211935000Y-67960000D02*
X211935000Y-66040000D01*
%TO.C,R9*%
X202772936Y-102015000D02*
X203227064Y-102015000D01*
X202772936Y-103485000D02*
X203227064Y-103485000D01*
%TO.C,D3*%
X194437500Y-67710000D02*
X197122500Y-67710000D01*
X197122500Y-65790000D02*
X194437500Y-65790000D01*
X197122500Y-67710000D02*
X197122500Y-65790000D01*
%TD*%
M02*
